<svg width="151" height="51" viewBox="0 0 151 51" fill="none" xmlns="http://www.w3.org/2000/svg">
<path d="M26.0142 14.4571C26.0412 13.8621 26.2373 7.64104 22.3492 3.51623C20.1448 1.18335 17.0951 0 13.2814 0C9.50818 0 6.43148 1.17658 4.15269 3.49595C-0.0600261 7.77628 -0.00592974 14.3827 0.000832244 14.6465L0.0211174 22.6932V44.433C0.0211174 47.7058 2.68534 50.3768 5.9649 50.3768C9.23771 50.3768 11.9087 47.7126 11.9087 44.433V23.7954V22.7V14.4301C11.9087 13.2535 12.3347 12.1716 13.0515 11.2858C13.7547 12.1851 14.1401 13.2738 14.1401 14.4368L14.1672 22.6797C14.1672 25.9525 16.8314 28.6235 20.111 28.6235C23.3838 28.6235 26.0548 25.9593 26.0548 22.6797L26.0142 14.4571ZM9.65019 14.4301V22.6932V23.7887V44.4262C9.65019 46.4616 7.9935 48.1183 5.95814 48.1183C3.92279 48.1183 2.2661 46.4616 2.2661 44.4262V22.6932L2.23905 14.6329C2.23905 14.5721 2.20524 8.66887 5.75528 5.07149C7.60131 3.20518 10.1303 2.2585 13.2746 2.2585C16.4392 2.2585 18.9412 3.19842 20.6993 5.05796C21.6189 6.02493 22.2613 7.16094 22.7076 8.29696C21.3552 7.37056 19.6714 6.82284 17.8254 6.82284C13.3219 6.82284 9.65019 10.2376 9.65019 14.4301ZM20.0975 26.365C18.0621 26.365 16.4054 24.7083 16.4054 22.6729L16.3784 14.4301C16.3784 12.7328 15.8104 11.1505 14.769 9.84545C15.6616 9.35859 16.7097 9.06782 17.8322 9.06782C21.1591 9.06782 23.7625 11.421 23.7625 14.4233L23.7895 22.6729C23.7895 24.7151 22.1328 26.365 20.0975 26.365Z" fill="#00331E"/>
<path d="M34.1481 50.3763C30.9023 50.3763 28.2651 47.7391 28.2651 44.4933V5.92297C28.2651 2.67721 30.9023 0.0400391 34.1481 0.0400391C37.3938 0.0400391 40.031 2.67721 40.031 5.92297V44.4933C40.0242 47.7391 37.3871 50.3763 34.1481 50.3763ZM34.1481 2.29178C32.1465 2.29178 30.5169 3.92142 30.5169 5.92297V44.4933C30.5169 46.4949 32.1465 48.1245 34.1481 48.1245C36.1496 48.1245 37.7793 46.4949 37.7793 44.4933V5.92297C37.7725 3.92142 36.1496 2.29178 34.1481 2.29178Z" fill="#00331E"/>
<path d="M56.9982 50.3765C48.9108 50.3765 42.3314 43.7971 42.3314 35.7097C42.3314 27.6224 48.9108 21.043 56.9982 21.043C65.0855 21.043 71.6649 27.6224 71.6649 35.7097C71.6649 43.7971 65.0855 50.3765 56.9982 50.3765ZM56.9982 23.2879C50.1483 23.2879 44.5832 28.8598 44.5832 35.703C44.5832 42.5461 50.155 48.118 56.9982 48.118C63.8413 48.118 69.4132 42.5461 69.4132 35.703C69.4132 28.8598 63.8413 23.2879 56.9982 23.2879Z" fill="#00331E"/>
<path d="M113.69 28.9748C113.589 24.5863 109.985 21.043 105.569 21.043C102.607 21.043 100.011 22.6388 98.5905 25.0123C97.1705 22.6388 94.5739 21.043 91.6122 21.043C89.8338 21.043 88.1839 21.6177 86.845 22.5915C85.5061 21.6177 83.8562 21.043 82.0778 21.043C77.6622 21.043 74.0648 24.5863 73.9566 28.9748L73.9431 44.5071C73.9431 47.7528 76.5803 50.39 79.826 50.39C83.0718 50.39 85.709 47.7528 85.709 44.5071L85.7293 29.1641H85.736C85.736 27.8861 86.1485 26.7095 86.845 25.7425C87.5347 26.696 87.9404 27.8658 87.9472 29.1235L87.9539 44.4327C87.9539 47.6784 90.5911 50.3156 93.8369 50.3156C97.0826 50.3156 99.7198 47.6784 99.7198 44.4327L99.6995 29.1574C99.6995 29.1574 99.6928 28.8395 99.7198 28.6773C99.8077 27.575 100.207 26.5608 100.815 25.7155C101.532 26.7095 101.931 27.9131 101.931 29.1574H101.938L101.944 44.4327C101.944 47.6784 104.582 50.3156 107.827 50.3156C111.073 50.3156 113.71 47.6784 113.71 44.4327L113.69 28.9748ZM83.464 44.5003C83.464 46.5018 81.8344 48.1315 79.8328 48.1315C77.8313 48.1315 76.2016 46.5018 76.2016 44.5003V29.3737V29.1641C76.2016 25.9251 78.8456 23.2879 82.0846 23.2879C83.2273 23.2879 84.2957 23.6193 85.1951 24.1873C84.1672 25.5126 83.5384 27.1693 83.4978 28.968H83.491L83.464 44.5003ZM93.8436 48.0706C91.8421 48.0706 90.2125 46.441 90.2125 44.4394L90.1989 28.968C90.1584 27.1693 89.5295 25.5194 88.5017 24.1873C89.4078 23.6193 90.4694 23.2879 91.6122 23.2879C94.6889 23.2879 97.2179 25.6682 97.4613 28.684C97.4883 28.9815 97.4748 44.4394 97.4748 44.4394C97.4748 46.441 95.8452 48.0706 93.8436 48.0706ZM107.834 48.0706C105.833 48.0706 104.203 46.441 104.203 44.4394L104.196 28.968H104.189C104.149 27.2234 103.54 25.5465 102.485 24.1805C103.385 23.6193 104.446 23.2879 105.582 23.2879C108.801 23.2879 111.418 25.8913 111.452 29.1033L111.472 44.4394C111.465 46.441 109.836 48.0706 107.834 48.0706Z" fill="#00331E"/>
<path d="M148.028 26.3577C142.463 26.3577 137.168 23.2607 134.193 18.1351C130.88 12.428 131.177 5.49696 134.944 0.472802C135.336 -0.0478709 136.08 -0.156064 136.6 0.236131C137.121 0.628326 137.229 1.37215 136.837 1.89282C133.639 6.15287 133.402 12.0628 136.242 16.945C139.068 21.8136 144.302 24.5455 149.577 23.8963C150.226 23.8152 150.814 24.275 150.895 24.9241C150.976 25.5733 150.517 26.1616 149.867 26.2427C149.245 26.3239 148.63 26.3577 148.028 26.3577Z" fill="#006941"/>
<path d="M149.711 26.2563C149.251 26.2563 148.819 25.9858 148.622 25.5396C146.553 20.7047 141.441 17.4522 135.89 17.4522C130.257 17.4522 125.267 20.6236 123.191 25.5328C122.934 26.1346 122.244 26.4118 121.642 26.1617C121.04 25.9047 120.763 25.215 121.013 24.6132C123.461 18.8317 129.304 15.0923 135.89 15.0923C142.368 15.0923 148.359 18.9196 150.793 24.6132C151.05 25.215 150.773 25.9047 150.171 26.1617C150.022 26.2293 149.867 26.2563 149.711 26.2563Z" fill="#00331E"/>
<path d="M137.466 8.79004C137.486 9.43919 138.034 9.9531 138.683 9.93282C139.298 9.91253 139.799 9.41891 139.832 8.81033C139.663 5.82153 138.649 2.92064 136.816 0.472802C136.424 -0.0478709 135.687 -0.156064 135.16 0.236131C134.639 0.628326 134.531 1.37215 134.923 1.89282C136.445 3.92141 137.297 6.31516 137.466 8.79004Z" fill="#18C67F"/>
<path d="M135.037 0.364793C135.01 0.391841 134.99 0.412126 134.963 0.445936C134.625 0.858417 134.598 1.46023 134.929 1.90652C135.281 2.37986 135.598 2.87349 135.876 3.38064C136.16 2.86673 136.471 2.3731 136.829 1.89976C137.106 1.52785 137.133 1.04099 136.931 0.655556C136.89 0.60146 136.856 0.547366 136.816 0.49327C136.43 -0.0206412 135.7 -0.128833 135.179 0.249838C135.172 0.2566 135.159 0.263361 135.152 0.270123C135.112 0.290409 135.071 0.330983 135.037 0.364793Z" fill="#00331E"/>
<path d="M139.744 12.1443C139.818 11.4951 139.345 10.8933 138.696 10.8257C138.047 10.7513 137.465 11.2179 137.398 11.867V11.8467C137.127 13.5913 136.525 15.3291 135.585 16.9453C132.759 21.8139 127.525 24.5457 122.251 23.8966C121.602 23.8154 121.013 24.2753 120.932 24.9244C120.851 25.5736 121.311 26.1618 121.96 26.243C122.569 26.3174 123.177 26.3579 123.786 26.3579C129.351 26.3579 134.646 23.261 137.628 18.1286C138.737 16.2285 139.433 14.1931 139.744 12.1443Z" fill="#18C67F"/>
</svg>
